<svg width="22" height="19" viewBox="0 0 22 19" fill="none" xmlns="http://www.w3.org/2000/svg">
<path d="M7.02738 4.75003C7.02738 4.37541 6.88301 4.05556 6.59428 3.79049C6.30554 3.52543 5.95714 3.39289 5.54906 3.39289C5.14098 3.39289 4.79258 3.52543 4.50385 3.79049C4.21511 4.05556 4.07075 4.37541 4.07075 4.75003C4.07075 5.12466 4.21511 5.44451 4.50385 5.70958C4.79258 5.97464 5.14098 6.10718 5.54906 6.10718C5.95714 6.10718 6.30554 5.97464 6.59428 5.70958C6.88301 5.44451 7.02738 5.12466 7.02738 4.75003ZM19.3505 10.8572C19.3505 11.2318 19.2081 11.5499 18.9232 11.8114L13.2525 17.0279C12.9522 17.2895 12.6019 17.4202 12.2015 17.4202C11.7934 17.4202 11.4469 17.2895 11.162 17.0279L2.90426 9.43642C2.61168 9.17489 2.36337 8.81793 2.15933 8.36555C1.95529 7.91317 1.85327 7.49966 1.85327 7.12503V2.71432C1.85327 2.34676 1.99956 2.02868 2.29215 1.76008C2.58473 1.49148 2.93121 1.35718 3.33159 1.35718H8.13611C8.54419 1.35718 8.99462 1.45083 9.48739 1.63815C9.98016 1.82546 10.3728 2.05342 10.6654 2.32202L18.9232 9.89233C19.2081 10.168 19.3505 10.4896 19.3505 10.8572Z" fill="#6D4C41"/>
</svg>
